<svg xmlns="http://www.w3.org/2000/svg" viewBox="0 0 512 512">
  <defs>
    <linearGradient id="bg" x1="64" y1="48" x2="448" y2="464" gradientUnits="userSpaceOnUse">
      <stop stop-color="#4ade80"/>
      <stop offset="1" stop-color="#15803d"/>
    </linearGradient>
    <filter id="shadow" x="-20%" y="-20%" width="140%" height="150%">
      <feDropShadow dx="0" dy="18" stdDeviation="15" flood-color="#052e16" flood-opacity=".38"/>
    </filter>
  </defs>
  <rect width="512" height="512" rx="112" fill="url(#bg)"/>
  <path d="M118 345V179c0-58 48-91 138-91s138 33 138 91v166c0 33-24 60-56 65v26c0 15-12 27-27 27h-7c-15 0-27-12-27-27v-24h-42v24c0 15-12 27-27 27h-7c-15 0-27-12-27-27v-26c-32-5-56-32-56-65Z" fill="#07130c" filter="url(#shadow)"/>
  <rect x="151" y="135" width="210" height="125" rx="25" fill="#166534"/>
  <path d="M172 156h168v83H172z" fill="#bbf7d0"/>
  <path d="M256 156v83" stroke="#07130c" stroke-width="13" opacity=".9"/>
  <circle cx="181" cy="337" r="29" fill="#22c55e"/>
  <circle cx="331" cy="337" r="29" fill="#22c55e"/>
  <path d="M181 291h150" stroke="#22c55e" stroke-width="15" stroke-linecap="round"/>
</svg>
